# xmcd CD database file
#
# Track frame offsets:
#	150
#	35223
#	66905
#	106359
#	128177
#	155104
#	191064
#	227193
#	259153
#	274030
#	313072
#
# Disc length: 4390 seconds
#
# Revision: 0
# Processed by: cddbd v1.5.2PL0 Copyright (c) Steve Scherf et al.
# Submitted via: CDex 1.51
#
DISCID=a911240b
DTITLE=Escalandrum - Misterioso
DYEAR=2006
DGENRE=Jazz
TTITLE0=Misterioso
TTITLE1=Bagualera
TTITLE2=Chacarerosa
TTITLE3=Antes de la lluvia
TTITLE4=El cruce
TTITLE5=Momo
TTITLE6=Fattogrosso
TTITLE7=La repetida
TTITLE8=Escualo
TTITLE9=Chopchi
TTITLE10=Misterioso (Reprise)
EXTD=YEAR: 2006
EXTT0=
EXTT1=
EXTT2=
EXTT3=
EXTT4=
EXTT5=
EXTT6=
EXTT7=
EXTT8=
EXTT9=
EXTT10=
PLAYORDER=
